<svg t="1635389247022" class="icon" viewBox="0 0 1024 1024" version="1.1" xmlns="http://www.w3.org/2000/svg" p-id="4050" width="32" height="32"><path d="M128 185.6C128 153.770667 153.770667 128 185.6 128h652.8c31.829333 0 57.6 25.770667 57.6 57.6v652.8A57.6 57.6 0 0 1 838.4 896H185.6A57.6 57.6 0 0 1 128 838.4V185.6z m611.84 216.064a28.8 28.8 0 1 0-42.88-38.528l-238.421333 265.386667-151.765334-152.149334a28.8 28.8 0 0 0-40.746666 40.704l173.226666 173.653334a28.8 28.8 0 0 0 41.813334-1.066667l258.773333-288z" p-id="4051" fill="#1fdcd2"></path></svg>