<svg t="1634612515365" class="icon" viewBox="0 0 1087 1024" version="1.1" xmlns="http://www.w3.org/2000/svg" p-id="16099" width="60" height="60"><path d="M127.936032 154.866567a411.314343 154.866567 0 1 0 822.628686 0 411.314343 154.866567 0 1 0-822.628686 0Z" fill="#e74c3c" p-id="16100"></path><path d="M676.461769 756.869565l64.863568-64.7996c-59.554223 10.170915-127.744128 16.695652-199.964018 16.695652-224.911544 0-412.401799-62.688656-412.401799-104.651674v209.111444c0 75.994003 184.675662 137.275362 412.401799 137.275363a1145.027486 1145.027486 0 0 0 166.636682-11.770115l75.226387-75.226387-106.762619-106.634683zM543.344328 634.498751c227.790105 0 412.401799-62.816592 412.401799-140.473763V279.988006c0 42.986507-187.554223 107.082459-412.401799 107.082459S130.942529 322.974513 130.942529 279.988006v214.036982c0 77.657171 184.675662 140.473763 412.401799 140.473763z" fill="#e74c3c" p-id="16101"></path><path d="M1086.88056 754.758621l-52.197901-52.197901-108.873564 108.937531-106.69865-106.634683-52.133933 52.005997 106.69865 106.698651-107.786107 107.850075 52.069965 52.197901 107.914043-107.914043 108.873564 108.937531 52.133933-52.069965-108.937532-108.873563 108.937532-108.937531z" fill="#e74c3c" p-id="16102"></path></svg>