<svg t="1634612681418" class="icon" viewBox="0 0 1024 1024" version="1.1" xmlns="http://www.w3.org/2000/svg" p-id="25809" width="60" height="60"><path d="M511.573333 100.266667c227.626667 0 412.16 184.405333 412.16 411.733333 0 223.402667-178.218667 405.333333-400.426666 411.562667l-11.733334 0.170666c-227.2 0-411.306667-184.362667-411.306666-411.733333 0-223.445333 177.834667-405.333333 399.616-411.562667l11.690666-0.170666z m0 55.466666c-196.522667 0-355.84 159.488-355.84 356.266667s159.317333 356.266667 355.84 356.266667c196.992 0 356.693333-159.573333 356.693334-356.266667 0-196.693333-159.701333-356.266667-356.693334-356.266667z" fill="#e74c3c" p-id="25810"></path><path d="M539.733333 631.765333v55.466667h-55.466666v-55.466667zM539.733333 341.333333v247.893334h-55.466666V341.333333z" fill="#e74c3c" p-id="25811"></path></svg>