<svg t="1634612421625" class="icon" viewBox="0 0 1024 1024" version="1.1" xmlns="http://www.w3.org/2000/svg" p-id="14112" width="60" height="60"><path d="M512 64c247.424 0 448 200.576 448 448s-200.576 448-448 448S64 759.424 64 512 264.576 64 512 64z m0 64C299.936 128 128 299.936 128 512s171.936 384 384 384 384-171.936 384-384S724.064 128 512 128z m160 544a32 32 0 0 1 0 64H352a32 32 0 0 1 0-64h320z m-320-288a64 64 0 1 1 0 128 64 64 0 0 1 0-128z m320 0a64 64 0 1 1 0 128 64 64 0 0 1 0-128z" p-id="14113" fill="#e74c3c"></path></svg>