<svg t="1635410996953" class="icon" viewBox="0 0 1024 1024" version="1.1" xmlns="http://www.w3.org/2000/svg" p-id="13552" width="32" height="32"><path d="M896 192H192a64 64 0 0 0-64 64v448a64 64 0 0 0 64 64h704a64 64 0 0 0 64-64V256a64 64 0 0 0-64-64z m0 512H192V256h704v448z m-192-384h-64v64h64V320z m-64 128H576v64h64V448z m128-128h64v64h-64V320z m64 256h-64v64h64V576zM384 576h320v64H384V576z m448-128h-128v64h128V448zM512 320h64v64H512V320z m0 128H448v64h64V448zM256 576h64v64H256V576z m0-256h64v64H256V320z m192 0H384v64h64V320zM256 448h128v64H256V448z" p-id="13553" fill="#2c2c2c"></path></svg>