<svg t="1634612564831" class="icon" viewBox="0 0 1024 1024" version="1.1" xmlns="http://www.w3.org/2000/svg" p-id="19096" width="60" height="60"><path d="M512 67.84c97.92 0 190.72 38.4 259.84 107.52 69.76 69.76 108.16 161.92 108.16 259.84 0 98.56-37.76 190.72-107.52 260.48L512 956.16l-260.48-260.48c-143.36-143.36-143.36-376.96 0-520.32 69.76-69.12 161.92-107.52 260.48-107.52z m0 64c-81.28 0-157.44 31.36-215.04 88.96-118.4 118.4-118.4 311.68 0 430.08L512 865.92l215.04-215.04c56.96-57.6 88.96-133.76 88.96-215.04s-31.36-157.44-88.96-215.04A301.536 301.536 0 0 0 512 131.84z m63.36 181.76l45.44 45.44-63.36 63.36 63.36 63.36-45.44 44.8L512 467.2l-63.36 63.36-45.44-44.8 63.36-63.36-63.36-63.36 45.44-45.44L512 376.96l63.36-63.36z" p-id="19097" fill="#e74c3c"></path></svg>