<svg t="1634612614175" class="icon" viewBox="0 0 1024 1024" version="1.1" xmlns="http://www.w3.org/2000/svg" p-id="20787" width="60" height="60"><path d="M471.04 819.2c-58.026667 0-102.4-44.373333-102.4-102.4s44.373333-102.4 102.4-102.4 102.4 44.373333 102.4 102.4-44.373333 102.4-102.4 102.4z m0-170.666667c-37.546667 0-68.266667 30.72-68.266667 68.266667s30.72 68.266667 68.266667 68.266667 68.266667-30.72 68.266667-68.266667-30.72-68.266667-68.266667-68.266667zM651.946667 552.96c-3.413333 0-10.24 0-13.653334-3.413333-44.373333-44.373333-105.813333-71.68-167.253333-71.68s-122.88 23.893333-167.253333 71.68c-6.826667 6.826667-17.066667 6.826667-23.893334 0-6.826667-6.826667-6.826667-17.066667 0-23.893334 51.2-51.2 119.466667-78.506667 194.56-78.506666s139.946667 27.306667 194.56 78.506666c6.826667 6.826667 6.826667 17.066667 0 23.893334-10.24 0-13.653333 3.413333-17.066666 3.413333zM795.306667 440.32c-3.413333 0-10.24 0-13.653334-3.413333-81.92-85.333333-194.56-129.706667-314.026666-129.706667S238.933333 351.573333 157.013333 436.906667c-6.826667 6.826667-20.48 6.826667-23.893333 0s-6.826667-17.066667 0-23.893334c187.733333-187.733333 488.106667-187.733333 675.84 0 6.826667 6.826667 6.826667 17.066667 0 23.893334-3.413333 3.413333-10.24 3.413333-13.653333 3.413333z" fill="#e74c3c" p-id="20788"></path><path d="M914.773333 320.853333c-3.413333 0-10.24 0-13.653333-3.413333-238.933333-238.933333-628.053333-238.933333-870.4 0-6.826667 6.826667-17.066667 6.826667-23.893333 0s-6.826667-17.066667 0-23.893333c252.586667-252.586667 665.6-252.586667 918.186666 0 6.826667 6.826667 6.826667 17.066667 0 23.893333 0 3.413333-3.413333 3.413333-10.24 3.413333z" fill="#e74c3c" p-id="20789"></path><path d="M727.04 785.066667c-3.413333 0-10.24 0-13.653333-3.413334-6.826667-6.826667-6.826667-17.066667 0-23.893333l136.533333-136.533333c6.826667-6.826667 17.066667-6.826667 23.893333 0s6.826667 17.066667 0 23.893333l-136.533333 136.533333s-3.413333 3.413333-10.24 3.413334z" fill="#e74c3c" p-id="20790"></path><path d="M863.573333 785.066667c-3.413333 0-10.24 0-13.653333-3.413334l-136.533333-136.533333c-6.826667-6.826667-6.826667-17.066667 0-23.893333s17.066667-6.826667 23.893333 0l136.533333 136.533333c6.826667 6.826667 6.826667 17.066667 0 23.893333 0 0-3.413333 3.413333-10.24 3.413334z" fill="#e74c3c" p-id="20791"></path><path d="M795.306667 921.6c-122.88 0-221.866667-98.986667-221.866667-221.866667s98.986667-221.866667 221.866667-221.866666 221.866667 98.986667 221.866666 221.866666-98.986667 221.866667-221.866666 221.866667z m0-409.6c-102.4 0-187.733333 85.333333-187.733334 187.733333s85.333333 187.733333 187.733334 187.733334 187.733333-85.333333 187.733333-187.733334-81.92-187.733333-187.733333-187.733333z" fill="#e74c3c" p-id="20792"></path></svg>